# xmcd
#
# Track frame offsets:
# 150
# 21032
# 37052
# 52082
# 66797
# 83007
# 99287
# 118512
# 138947
# 157985
#
# Disc length: 2295 seconds
#
#
# Revision: 1
# Processed by: cddbd v1.5.2PL0 Copyright (c) Steve Scherf et al.
# Submitted via: FreeRIP 2.945 
#
DISCID=7908f50a
DTITLE=Αντωνιάδης Χρήστος - Η πρώτη αγάπη
DYEAR=2001
DGENRE=Other
TTITLE0=Φεύγω μακριά
TTITLE1=Ο δικός μου ο θεός
TTITLE2=Δικαίωμά μου
TTITLE3=Δε φταις εσύ
TTITLE4=Οποτε θες
TTITLE5=Ασε με
TTITLE6=Τη δεύτερη φορά
TTITLE7=Υπάρχουν και καλά παιδιά
TTITLE8=Κανονικά εγώ
TTITLE9=Λυκούργου και Αθηνάς
EXTD=KLcanislupus©
EXTT0=
EXTT1=
EXTT2=
EXTT3=
EXTT4=
EXTT5=
EXTT6=
EXTT7=
EXTT8=
EXTT9=
PLAYORDER=
